<mxfile host="app.diagrams.net" modified="2021-01-04T09:55:50.207Z" agent="5.0 (Windows NT 10.0; Win64; x64) AppleWebKit/537.36 (KHTML, like Gecko) Chrome/86.0.4240.75 Safari/537.36" etag="L1QORQpYKCb4duO1OkX-" version="14.1.8" type="github">
  <diagram id="gHr1JoqbI7yrwuZ-KUK4" name="Page-1">
    <mxGraphModel dx="804" dy="527" grid="1" gridSize="10" guides="1" tooltips="1" connect="1" arrows="1" fold="1" page="1" pageScale="1" pageWidth="827" pageHeight="1169" math="0" shadow="0">
      <root>
        <mxCell id="0" />
        <mxCell id="1" parent="0" />
        <mxCell id="zHC3cjmE3yhob5l7D6uD-3" style="edgeStyle=orthogonalEdgeStyle;rounded=0;orthogonalLoop=1;jettySize=auto;html=1;exitX=1;exitY=0.5;exitDx=0;exitDy=0;" parent="1" source="zHC3cjmE3yhob5l7D6uD-1" target="zHC3cjmE3yhob5l7D6uD-2" edge="1">
          <mxGeometry relative="1" as="geometry" />
        </mxCell>
        <mxCell id="zHC3cjmE3yhob5l7D6uD-1" value="加载历史未核销数据" style="rounded=1;whiteSpace=wrap;html=1;" parent="1" vertex="1">
          <mxGeometry x="60" y="140" width="120" height="60" as="geometry" />
        </mxCell>
        <mxCell id="zHC3cjmE3yhob5l7D6uD-5" style="edgeStyle=orthogonalEdgeStyle;rounded=0;orthogonalLoop=1;jettySize=auto;html=1;exitX=0.5;exitY=1;exitDx=0;exitDy=0;" parent="1" source="zHC3cjmE3yhob5l7D6uD-2" target="zHC3cjmE3yhob5l7D6uD-4" edge="1">
          <mxGeometry relative="1" as="geometry" />
        </mxCell>
        <mxCell id="zHC3cjmE3yhob5l7D6uD-2" value="正向对账: ERP流水-&amp;gt;银行流水&lt;br&gt;（检查未收）" style="rounded=1;whiteSpace=wrap;html=1;" parent="1" vertex="1">
          <mxGeometry x="300" y="140" width="190" height="60" as="geometry" />
        </mxCell>
        <mxCell id="uR0UVcIPuwyNsC2U1HOz-3" style="edgeStyle=orthogonalEdgeStyle;rounded=0;orthogonalLoop=1;jettySize=auto;html=1;exitX=0.5;exitY=1;exitDx=0;exitDy=0;entryX=0.5;entryY=0;entryDx=0;entryDy=0;" edge="1" parent="1" source="zHC3cjmE3yhob5l7D6uD-4" target="uR0UVcIPuwyNsC2U1HOz-1">
          <mxGeometry relative="1" as="geometry" />
        </mxCell>
        <mxCell id="zHC3cjmE3yhob5l7D6uD-4" value="反向对账: 银行流水-&amp;gt;ERP流水&lt;br&gt;（检查预收）" style="rounded=1;whiteSpace=wrap;html=1;" parent="1" vertex="1">
          <mxGeometry x="300" y="290" width="190" height="60" as="geometry" />
        </mxCell>
        <mxCell id="uR0UVcIPuwyNsC2U1HOz-24" style="edgeStyle=orthogonalEdgeStyle;rounded=0;orthogonalLoop=1;jettySize=auto;html=1;exitX=0.5;exitY=1;exitDx=0;exitDy=0;" edge="1" parent="1" source="uR0UVcIPuwyNsC2U1HOz-1" target="uR0UVcIPuwyNsC2U1HOz-4">
          <mxGeometry relative="1" as="geometry" />
        </mxCell>
        <mxCell id="uR0UVcIPuwyNsC2U1HOz-1" value="核销" style="rounded=1;whiteSpace=wrap;html=1;" vertex="1" parent="1">
          <mxGeometry x="335" y="410" width="120" height="60" as="geometry" />
        </mxCell>
        <mxCell id="uR0UVcIPuwyNsC2U1HOz-9" value="" style="edgeStyle=orthogonalEdgeStyle;rounded=0;orthogonalLoop=1;jettySize=auto;html=1;" edge="1" parent="1" source="uR0UVcIPuwyNsC2U1HOz-4" target="uR0UVcIPuwyNsC2U1HOz-8">
          <mxGeometry relative="1" as="geometry" />
        </mxCell>
        <mxCell id="uR0UVcIPuwyNsC2U1HOz-11" style="edgeStyle=orthogonalEdgeStyle;rounded=0;orthogonalLoop=1;jettySize=auto;html=1;exitX=1;exitY=0.5;exitDx=0;exitDy=0;entryX=0;entryY=0.5;entryDx=0;entryDy=0;" edge="1" parent="1" source="uR0UVcIPuwyNsC2U1HOz-4" target="uR0UVcIPuwyNsC2U1HOz-10">
          <mxGeometry relative="1" as="geometry" />
        </mxCell>
        <mxCell id="uR0UVcIPuwyNsC2U1HOz-22" style="edgeStyle=orthogonalEdgeStyle;rounded=0;orthogonalLoop=1;jettySize=auto;html=1;exitX=0.5;exitY=1;exitDx=0;exitDy=0;entryX=0.5;entryY=0;entryDx=0;entryDy=0;" edge="1" parent="1" source="uR0UVcIPuwyNsC2U1HOz-4" target="uR0UVcIPuwyNsC2U1HOz-21">
          <mxGeometry relative="1" as="geometry" />
        </mxCell>
        <mxCell id="uR0UVcIPuwyNsC2U1HOz-4" value="并单处理" style="whiteSpace=wrap;html=1;rounded=1;" vertex="1" parent="1">
          <mxGeometry x="335" y="520" width="120" height="60" as="geometry" />
        </mxCell>
        <mxCell id="uR0UVcIPuwyNsC2U1HOz-8" value="并单逻辑一" style="shape=parallelogram;perimeter=parallelogramPerimeter;whiteSpace=wrap;html=1;fixedSize=1;rounded=1;" vertex="1" parent="1">
          <mxGeometry x="550" y="470" width="120" height="60" as="geometry" />
        </mxCell>
        <mxCell id="uR0UVcIPuwyNsC2U1HOz-10" value="并单逻辑二" style="shape=parallelogram;perimeter=parallelogramPerimeter;whiteSpace=wrap;html=1;fixedSize=1;rounded=1;" vertex="1" parent="1">
          <mxGeometry x="550" y="570" width="120" height="60" as="geometry" />
        </mxCell>
        <mxCell id="uR0UVcIPuwyNsC2U1HOz-19" style="edgeStyle=orthogonalEdgeStyle;rounded=0;orthogonalLoop=1;jettySize=auto;html=1;exitX=0.5;exitY=1;exitDx=0;exitDy=0;entryX=0.5;entryY=0;entryDx=0;entryDy=0;" edge="1" parent="1" source="uR0UVcIPuwyNsC2U1HOz-12" target="uR0UVcIPuwyNsC2U1HOz-18">
          <mxGeometry relative="1" as="geometry" />
        </mxCell>
        <mxCell id="uR0UVcIPuwyNsC2U1HOz-12" value="ERP退货情况处理" style="whiteSpace=wrap;html=1;rounded=1;" vertex="1" parent="1">
          <mxGeometry x="335" y="750" width="120" height="60" as="geometry" />
        </mxCell>
        <mxCell id="uR0UVcIPuwyNsC2U1HOz-17" value="" style="edgeStyle=orthogonalEdgeStyle;rounded=0;orthogonalLoop=1;jettySize=auto;html=1;" edge="1" parent="1" source="uR0UVcIPuwyNsC2U1HOz-14" target="uR0UVcIPuwyNsC2U1HOz-16">
          <mxGeometry relative="1" as="geometry" />
        </mxCell>
        <mxCell id="uR0UVcIPuwyNsC2U1HOz-14" value="拼单且有运费情况处理" style="whiteSpace=wrap;html=1;rounded=1;" vertex="1" parent="1">
          <mxGeometry x="335" y="950" width="120" height="60" as="geometry" />
        </mxCell>
        <mxCell id="uR0UVcIPuwyNsC2U1HOz-16" value="核销" style="whiteSpace=wrap;html=1;rounded=1;" vertex="1" parent="1">
          <mxGeometry x="335" y="1060" width="120" height="60" as="geometry" />
        </mxCell>
        <mxCell id="uR0UVcIPuwyNsC2U1HOz-20" style="edgeStyle=orthogonalEdgeStyle;rounded=0;orthogonalLoop=1;jettySize=auto;html=1;exitX=0.5;exitY=1;exitDx=0;exitDy=0;entryX=0.5;entryY=0;entryDx=0;entryDy=0;" edge="1" parent="1" source="uR0UVcIPuwyNsC2U1HOz-18" target="uR0UVcIPuwyNsC2U1HOz-14">
          <mxGeometry relative="1" as="geometry" />
        </mxCell>
        <mxCell id="uR0UVcIPuwyNsC2U1HOz-18" value="核销" style="whiteSpace=wrap;html=1;rounded=1;" vertex="1" parent="1">
          <mxGeometry x="335" y="850" width="120" height="60" as="geometry" />
        </mxCell>
        <mxCell id="uR0UVcIPuwyNsC2U1HOz-23" style="edgeStyle=orthogonalEdgeStyle;rounded=0;orthogonalLoop=1;jettySize=auto;html=1;exitX=0.5;exitY=1;exitDx=0;exitDy=0;" edge="1" parent="1" source="uR0UVcIPuwyNsC2U1HOz-21" target="uR0UVcIPuwyNsC2U1HOz-12">
          <mxGeometry relative="1" as="geometry" />
        </mxCell>
        <mxCell id="uR0UVcIPuwyNsC2U1HOz-21" value="核销" style="whiteSpace=wrap;html=1;rounded=1;" vertex="1" parent="1">
          <mxGeometry x="335" y="640" width="120" height="60" as="geometry" />
        </mxCell>
      </root>
    </mxGraphModel>
  </diagram>
</mxfile>
